<mxfile host="app.diagrams.net" agent="Mozilla/5.0 (Macintosh; Intel Mac OS X 10_15_7) AppleWebKit/537.36 (KHTML, like Gecko) Chrome/136.0.0.0 Safari/537.36" version="27.1.1">
  <diagram name="第 1 页" id="3dxSefOkqyv9eTxEkpJ2">
    <mxGraphModel dx="610" dy="394" grid="1" gridSize="10" guides="1" tooltips="1" connect="1" arrows="1" fold="1" page="1" pageScale="1" pageWidth="827" pageHeight="1169" math="0" shadow="0">
      <root>
        <mxCell id="0" />
        <mxCell id="1" parent="0" />
        <mxCell id="jiWwFVgmhnMfYL-p5k7F-15" style="edgeStyle=orthogonalEdgeStyle;rounded=0;orthogonalLoop=1;jettySize=auto;html=1;exitX=0.5;exitY=1;exitDx=0;exitDy=0;entryX=0;entryY=0.25;entryDx=0;entryDy=0;strokeColor=#FF0000;" edge="1" parent="1" source="jiWwFVgmhnMfYL-p5k7F-1" target="jiWwFVgmhnMfYL-p5k7F-12">
          <mxGeometry relative="1" as="geometry" />
        </mxCell>
        <mxCell id="jiWwFVgmhnMfYL-p5k7F-23" value="V(apple)" style="edgeLabel;html=1;align=center;verticalAlign=middle;resizable=0;points=[];" vertex="1" connectable="0" parent="jiWwFVgmhnMfYL-p5k7F-15">
          <mxGeometry x="0.2571" y="3" relative="1" as="geometry">
            <mxPoint x="12" y="-7" as="offset" />
          </mxGeometry>
        </mxCell>
        <mxCell id="jiWwFVgmhnMfYL-p5k7F-1" value="father" style="rounded=1;whiteSpace=wrap;html=1;fillColor=#d5e8d4;strokeColor=#82b366;" vertex="1" parent="1">
          <mxGeometry x="120" y="80" width="80" height="40" as="geometry" />
        </mxCell>
        <mxCell id="jiWwFVgmhnMfYL-p5k7F-17" style="edgeStyle=orthogonalEdgeStyle;rounded=0;orthogonalLoop=1;jettySize=auto;html=1;exitX=1;exitY=0.5;exitDx=0;exitDy=0;entryX=0.25;entryY=1;entryDx=0;entryDy=0;" edge="1" parent="1" source="jiWwFVgmhnMfYL-p5k7F-2" target="jiWwFVgmhnMfYL-p5k7F-12">
          <mxGeometry relative="1" as="geometry" />
        </mxCell>
        <mxCell id="jiWwFVgmhnMfYL-p5k7F-26" value="V(plate)" style="edgeLabel;html=1;align=center;verticalAlign=middle;resizable=0;points=[];" vertex="1" connectable="0" parent="jiWwFVgmhnMfYL-p5k7F-17">
          <mxGeometry x="-0.6833" y="1" relative="1" as="geometry">
            <mxPoint x="11" y="-9" as="offset" />
          </mxGeometry>
        </mxCell>
        <mxCell id="jiWwFVgmhnMfYL-p5k7F-2" value="daughter" style="rounded=1;whiteSpace=wrap;html=1;fillColor=#d5e8d4;strokeColor=#82b366;" vertex="1" parent="1">
          <mxGeometry x="120" y="280" width="80" height="40" as="geometry" />
        </mxCell>
        <mxCell id="jiWwFVgmhnMfYL-p5k7F-20" style="edgeStyle=orthogonalEdgeStyle;rounded=0;orthogonalLoop=1;jettySize=auto;html=1;exitX=0.5;exitY=1;exitDx=0;exitDy=0;entryX=1;entryY=0.25;entryDx=0;entryDy=0;fillColor=#fff2cc;strokeColor=#FF8000;" edge="1" parent="1" source="jiWwFVgmhnMfYL-p5k7F-3" target="jiWwFVgmhnMfYL-p5k7F-12">
          <mxGeometry relative="1" as="geometry" />
        </mxCell>
        <mxCell id="jiWwFVgmhnMfYL-p5k7F-24" value="V(orange)" style="edgeLabel;html=1;align=center;verticalAlign=middle;resizable=0;points=[];" vertex="1" connectable="0" parent="jiWwFVgmhnMfYL-p5k7F-20">
          <mxGeometry x="0.4429" y="-2" relative="1" as="geometry">
            <mxPoint x="1" y="-8" as="offset" />
          </mxGeometry>
        </mxCell>
        <mxCell id="jiWwFVgmhnMfYL-p5k7F-3" value="mother" style="rounded=1;whiteSpace=wrap;html=1;fillColor=#d5e8d4;strokeColor=#82b366;" vertex="1" parent="1">
          <mxGeometry x="360" y="80" width="80" height="40" as="geometry" />
        </mxCell>
        <mxCell id="jiWwFVgmhnMfYL-p5k7F-19" style="edgeStyle=orthogonalEdgeStyle;rounded=0;orthogonalLoop=1;jettySize=auto;html=1;entryX=0.75;entryY=1;entryDx=0;entryDy=0;" edge="1" parent="1" source="jiWwFVgmhnMfYL-p5k7F-4" target="jiWwFVgmhnMfYL-p5k7F-12">
          <mxGeometry relative="1" as="geometry" />
        </mxCell>
        <mxCell id="jiWwFVgmhnMfYL-p5k7F-27" value="V(plate)" style="edgeLabel;html=1;align=center;verticalAlign=middle;resizable=0;points=[];" vertex="1" connectable="0" parent="jiWwFVgmhnMfYL-p5k7F-19">
          <mxGeometry x="-0.3833" y="1" relative="1" as="geometry">
            <mxPoint x="7" y="-11" as="offset" />
          </mxGeometry>
        </mxCell>
        <mxCell id="jiWwFVgmhnMfYL-p5k7F-4" value="son" style="rounded=1;whiteSpace=wrap;html=1;fillColor=#d5e8d4;strokeColor=#82b366;" vertex="1" parent="1">
          <mxGeometry x="360" y="280" width="80" height="40" as="geometry" />
        </mxCell>
        <mxCell id="jiWwFVgmhnMfYL-p5k7F-13" style="edgeStyle=orthogonalEdgeStyle;rounded=0;orthogonalLoop=1;jettySize=auto;html=1;exitX=0.25;exitY=0;exitDx=0;exitDy=0;entryX=1;entryY=0.5;entryDx=0;entryDy=0;" edge="1" parent="1" source="jiWwFVgmhnMfYL-p5k7F-12" target="jiWwFVgmhnMfYL-p5k7F-1">
          <mxGeometry relative="1" as="geometry" />
        </mxCell>
        <mxCell id="jiWwFVgmhnMfYL-p5k7F-21" value="P(plate)" style="edgeLabel;html=1;align=center;verticalAlign=middle;resizable=0;points=[];" vertex="1" connectable="0" parent="jiWwFVgmhnMfYL-p5k7F-13">
          <mxGeometry x="0.3333" relative="1" as="geometry">
            <mxPoint x="-10" y="10" as="offset" />
          </mxGeometry>
        </mxCell>
        <mxCell id="jiWwFVgmhnMfYL-p5k7F-14" style="edgeStyle=orthogonalEdgeStyle;rounded=0;orthogonalLoop=1;jettySize=auto;html=1;exitX=0.75;exitY=0;exitDx=0;exitDy=0;entryX=0;entryY=0.5;entryDx=0;entryDy=0;" edge="1" parent="1" source="jiWwFVgmhnMfYL-p5k7F-12" target="jiWwFVgmhnMfYL-p5k7F-3">
          <mxGeometry relative="1" as="geometry" />
        </mxCell>
        <mxCell id="jiWwFVgmhnMfYL-p5k7F-22" value="P(plate)" style="edgeLabel;html=1;align=center;verticalAlign=middle;resizable=0;points=[];" vertex="1" connectable="0" parent="jiWwFVgmhnMfYL-p5k7F-14">
          <mxGeometry x="0.4" y="-2" relative="1" as="geometry">
            <mxPoint x="6" y="8" as="offset" />
          </mxGeometry>
        </mxCell>
        <mxCell id="jiWwFVgmhnMfYL-p5k7F-16" style="edgeStyle=orthogonalEdgeStyle;rounded=0;orthogonalLoop=1;jettySize=auto;html=1;exitX=0;exitY=0.75;exitDx=0;exitDy=0;strokeColor=#FF0000;" edge="1" parent="1" source="jiWwFVgmhnMfYL-p5k7F-12" target="jiWwFVgmhnMfYL-p5k7F-2">
          <mxGeometry relative="1" as="geometry" />
        </mxCell>
        <mxCell id="jiWwFVgmhnMfYL-p5k7F-25" value="P(apple)" style="edgeLabel;html=1;align=center;verticalAlign=middle;resizable=0;points=[];" vertex="1" connectable="0" parent="jiWwFVgmhnMfYL-p5k7F-16">
          <mxGeometry x="-0.3429" relative="1" as="geometry">
            <mxPoint x="6" y="10" as="offset" />
          </mxGeometry>
        </mxCell>
        <mxCell id="jiWwFVgmhnMfYL-p5k7F-18" style="edgeStyle=orthogonalEdgeStyle;rounded=0;orthogonalLoop=1;jettySize=auto;html=1;exitX=1;exitY=0.75;exitDx=0;exitDy=0;strokeColor=#FF8000;" edge="1" parent="1" source="jiWwFVgmhnMfYL-p5k7F-12" target="jiWwFVgmhnMfYL-p5k7F-4">
          <mxGeometry relative="1" as="geometry" />
        </mxCell>
        <mxCell id="jiWwFVgmhnMfYL-p5k7F-28" value="P(orange)" style="edgeLabel;html=1;align=center;verticalAlign=middle;resizable=0;points=[];" vertex="1" connectable="0" parent="jiWwFVgmhnMfYL-p5k7F-18">
          <mxGeometry x="-0.7" y="2" relative="1" as="geometry">
            <mxPoint x="9" y="12" as="offset" />
          </mxGeometry>
        </mxCell>
        <mxCell id="jiWwFVgmhnMfYL-p5k7F-12" value="plate" style="whiteSpace=wrap;html=1;aspect=fixed;fillColor=#d5e8d4;strokeColor=#82b366;" vertex="1" parent="1">
          <mxGeometry x="240" y="160" width="80" height="80" as="geometry" />
        </mxCell>
        <mxCell id="jiWwFVgmhnMfYL-p5k7F-29" value="plate = 1&lt;div&gt;apple = 0&lt;/div&gt;&lt;div&gt;orange = 0&lt;/div&gt;" style="text;html=1;align=center;verticalAlign=middle;whiteSpace=wrap;rounded=0;fillColor=#f5f5f5;fontColor=#333333;strokeColor=#666666;" vertex="1" parent="1">
          <mxGeometry x="240" y="310" width="80" height="50" as="geometry" />
        </mxCell>
      </root>
    </mxGraphModel>
  </diagram>
</mxfile>
